<?xml version="1.0" standalone="no"?>
<!DOCTYPE svg PUBLIC "-//W3C//DTD SVG 20010904//EN"
 "http://www.w3.org/TR/2001/REC-SVG-20010904/DTD/svg10.dtd">
<svg version="1.0" xmlns="http://www.w3.org/2000/svg"
 width="310.000000pt" height="310.000000pt" viewBox="0 0 310.000000 310.000000"
 preserveAspectRatio="xMidYMid meet">
<metadata>
Created by potrace 1.11, written by Peter Selinger 2001-2013
</metadata>
<g transform="translate(0.000000,310.000000) scale(0.100000,-0.100000)"
fill="#000000" stroke="none">
<path d="M261 2601 c-76 -21 -95 -149 -56 -371 31 -171 71 -291 146 -442 27
-53 49 -101 49 -106 0 -19 -102 -182 -142 -227 -22 -25 -64 -59 -94 -77 -30
-18 -54 -35 -54 -39 0 -3 19 -28 42 -54 71 -80 53 -124 -80 -193 l-73 -39 55
-51 c36 -34 53 -57 50 -69 -7 -28 38 -106 74 -128 18 -11 54 -38 80 -59 133
-112 499 -317 677 -380 44 -16 89 -37 101 -47 13 -13 34 -19 60 -18 21 1 67
-6 100 -15 34 -9 72 -16 83 -16 12 0 32 -6 44 -13 39 -23 539 7 607 36 8 3 76
26 150 51 139 45 293 110 390 164 30 17 79 42 108 56 29 14 55 32 58 40 3 9
33 34 66 57 33 22 104 77 158 120 97 79 130 122 130 171 0 15 18 41 50 73 28
27 50 54 50 61 0 6 -14 14 -32 18 -17 3 -64 22 -105 41 -67 33 -73 38 -73 66
0 21 12 44 35 72 19 22 35 44 35 49 0 4 -33 40 -73 80 -68 67 -187 244 -187
278 0 6 26 59 59 118 68 124 88 182 138 402 19 83 22 263 5 311 -7 20 -24 47
-38 60 -24 22 -33 24 -122 23 -170 -3 -335 -50 -557 -161 l-129 -64 -126 40
c-311 102 -529 95 -833 -25 l-48 -19 -47 28 c-100 60 -251 128 -337 152 -153
44 -329 65 -394 46z m439 -300 c78 -25 130 -55 130 -76 0 -9 -31 -46 -68 -83
-38 -37 -86 -88 -107 -115 -35 -44 -39 -46 -56 -31 -31 28 -90 152 -104 220
-14 65 -11 92 9 107 17 13 124 0 196 -22z m1868 -16 c8 -65 -59 -259 -101
-293 -21 -18 -34 -9 -94 63 -28 33 -71 80 -97 105 -25 24 -46 52 -46 63 0 37
180 97 280 94 53 -2 55 -3 58 -32z m-1258 -95 c29 -21 61 -93 46 -107 -3 -4
-36 -10 -72 -15 -77 -9 -155 -42 -207 -87 -20 -18 -41 -30 -47 -26 -17 11 -11
103 9 143 22 43 75 96 111 111 38 16 125 6 160 -19z m607 9 c38 -14 90 -65
114 -111 18 -36 26 -127 13 -141 -4 -4 -22 7 -41 23 -53 47 -125 79 -205 91
-103 16 -99 15 -92 46 11 42 32 69 67 87 37 18 103 21 144 5z m-117 -449 c146
-11 302 -33 363 -50 53 -16 112 -72 134 -128 26 -68 25 -248 -1 -317 -40 -104
-75 -127 -216 -144 -206 -25 -182 -27 -239 14 -178 128 -459 123 -638 -11 -38
-28 -45 -29 -205 -8 -136 17 -179 33 -208 74 -60 84 -67 301 -14 407 46 92 86
111 279 138 240 33 512 42 745 25z m-119 -569 c55 -18 159 -77 159 -92 0 -3
-41 -6 -92 -8 -51 -1 -95 -4 -99 -7 -4 -2 -23 3 -43 11 -42 18 -108 19 -156 2
-37 -13 -220 -12 -220 1 0 14 101 75 152 93 74 26 216 25 299 0z m-83 -118
c-16 -2 -40 -2 -55 0 -16 2 -3 4 27 4 30 0 43 -2 28 -4z m-204 -43 c-7 -44 39
-121 85 -141 27 -12 31 -19 31 -55 0 -40 -1 -42 -42 -52 -58 -15 -116 1 -167
45 -41 35 -51 58 -29 65 19 7 -1 28 -26 28 -37 0 -65 -50 -46 -80 9 -13 11
-13 19 -1 7 11 16 6 41 -22 66 -76 84 -81 276 -83 200 -2 214 2 267 87 17 28
33 46 35 40 7 -20 22 -11 22 13 0 23 -44 70 -59 62 -3 -1 -15 -6 -26 -10 -19
-7 -19 -8 5 -26 l24 -18 -50 -51 c-49 -49 -54 -51 -105 -51 -86 0 -97 6 -101
51 -3 35 0 42 21 52 14 7 40 32 59 56 28 38 33 51 30 88 l-3 43 112 0 112 0
24 -32 c50 -67 70 -120 75 -200 9 -149 -62 -286 -191 -369 -84 -55 -153 -74
-262 -73 -148 2 -268 54 -359 156 -65 71 -89 142 -84 248 4 96 31 169 88 234
l33 38 98 -4 98 -3 -5 -35z m1021 -95 c78 -79 162 -202 147 -216 -4 -4 -42
-28 -84 -53 l-78 -46 -31 63 c-41 80 -94 159 -153 224 -34 38 -42 51 -29 51
10 -1 37 10 60 25 24 15 48 27 54 27 8 0 7 6 -2 17 -13 15 -12 15 11 3 14 -7
61 -50 105 -95z m-1668 83 c-2 -8 20 -27 52 -45 44 -26 58 -30 70 -20 9 7 7 0
-4 -14 -94 -122 -117 -156 -154 -228 l-42 -82 -57 32 c-31 18 -69 41 -84 51
l-27 18 32 57 c26 47 199 243 214 243 3 0 3 -6 0 -12z"/>
<path d="M2500 2307 c0 -2 14 -16 30 -32 l30 -29 0 32 c0 29 -3 32 -30 32 -16
0 -30 -1 -30 -3z"/>
<path d="M1282 1523 c-6 -2 -9 -9 -6 -14 12 -20 -6 -59 -26 -59 -18 0 -20 -7
-20 -79 0 -97 13 -116 73 -108 21 3 41 8 45 11 3 4 8 55 10 114 4 92 2 111
-13 125 -16 17 -38 20 -63 10z"/>
<path d="M1735 1501 c5 -23 1 -33 -19 -49 -22 -17 -26 -28 -26 -70 0 -90 8
-111 47 -118 19 -4 45 -2 59 5 23 10 24 15 24 103 0 118 -5 134 -42 147 -45
16 -50 14 -43 -18z"/>
</g>
</svg>
